<?xml version="1.0" encoding="utf-8"?>
<!-- Generator: Adobe Illustrator 27.4.1, SVG Export Plug-In . SVG Version: 6.00 Build 0)  -->
<svg version="1.1" id="Слой_1" xmlns="http://www.w3.org/2000/svg" xmlns:xlink="http://www.w3.org/1999/xlink" x="0px" y="0px"
	 viewBox="0 0 800 800" style="width: 100%; height: 100%" xml:space="preserve" stroke="none" fill="white">
<path d="M210.2,77.2v645.6c0,16.3,13.2,29.5,29.5,29.5h320.6c16.3,0,29.5-13.2,29.5-29.5V77.2c0-16.3-13.2-29.5-29.5-29.5H239.7
	C223.4,47.7,210.2,60.9,210.2,77.2z M367.5,78.9l64.6,0c6.9,0,12.8,5.4,12.9,12.3c0.1,7-5.5,12.7-12.5,12.7l-64.6,0
	c-6.9,0-12.8-5.4-12.9-12.3C354.8,84.6,360.5,78.9,367.5,78.9z M399.2,736c-17.3,0-31.1-14.5-30-32c0.9-15,13.1-27.2,28.1-28.1
	c17.5-1.1,32,12.8,32,30C429.3,722.5,415.8,736,399.2,736L399.2,736L399.2,736z M563.3,666.4H233.6V130.5h329.7V666.4z"/>
</svg>
